<svg xmlns="http://www.w3.org/2000/svg" width="700" height="134" fill="none"><path d="M135.462 82.825c-4.13 0-7.383 1.321-9.756 3.965-2.374 2.644-3.56 6.264-3.56 10.861 0 4.702 1.119 8.352 3.357 10.95 2.238 2.6 5.438 3.899 9.599 3.899 2.764 0 5.302-.353 7.616-1.06v2.029c-2.178.766-4.897 1.15-8.157 1.15-4.627 0-8.27-1.496-10.928-4.485-2.66-2.99-3.988-7.165-3.988-12.528 0-3.35.63-6.302 1.892-8.855 1.277-2.554 3.102-4.522 5.476-5.904 2.388-1.397 5.16-2.095 8.314-2.095 3.215 0 6.092.6 8.63 1.802l-.924 2.073c-2.403-1.201-4.927-1.802-7.57-1.802zm34.295 19.062c0 3.996-.97 7.12-2.907 9.374-1.938 2.238-4.612 3.357-8.021 3.357-2.148 0-4.041-.518-5.679-1.555-1.637-1.036-2.891-2.523-3.762-4.461-.872-1.938-1.307-4.176-1.307-6.715 0-3.996.968-7.105 2.906-9.328 1.938-2.239 4.597-3.358 7.977-3.358 3.365 0 6 1.134 7.909 3.403 1.923 2.253 2.884 5.347 2.884 9.283zm-19.333 0c0 3.365.736 5.994 2.208 7.886 1.487 1.878 3.583 2.817 6.287 2.817 2.704 0 4.792-.939 6.264-2.817 1.487-1.892 2.23-4.52 2.23-7.886 0-3.38-.75-6.001-2.253-7.864-1.487-1.862-3.583-2.794-6.286-2.794-2.704 0-4.792.932-6.264 2.794-1.458 1.848-2.186 4.47-2.186 7.864zm56.714 12.28V98.102c0-2.389-.465-4.131-1.397-5.228-.931-1.096-2.358-1.645-4.28-1.645-2.51 0-4.365.691-5.566 2.073-1.202 1.382-1.803 3.553-1.803 6.512v14.353h-2.276V97.426c0-4.131-1.892-6.197-5.678-6.197-2.569 0-4.439.751-5.61 2.253-1.172 1.488-1.758 3.876-1.758 7.166v13.52h-2.23V89.674h1.847l.473 3.357h.135a6.95 6.95 0 012.884-2.817c1.247-.676 2.622-1.014 4.124-1.014 3.86 0 6.339 1.45 7.436 4.35h.09c.796-1.398 1.862-2.472 3.2-3.223 1.351-.751 2.884-1.127 4.596-1.127 2.674 0 4.68.714 6.016 2.141 1.337 1.427 2.006 3.695 2.006 6.805v16.02zm20.618.451c-3.77 0-6.52-1.412-8.247-4.236h-.158l.068 1.893c.06 1.111.09 2.328.09 3.65v9.328h-2.23V89.675h1.892l.428 3.492h.135c1.683-2.644 4.372-3.966 8.067-3.966 3.305 0 5.82 1.09 7.548 3.267 1.743 2.164 2.614 5.318 2.614 9.464 0 4.026-.916 7.15-2.749 9.374-1.818 2.208-4.304 3.312-7.458 3.312zm-.045-1.983c2.508 0 4.446-.931 5.813-2.794 1.382-1.863 2.073-4.469 2.073-7.819 0-7.195-2.599-10.793-7.796-10.793-2.854 0-4.95.789-6.287 2.366-1.337 1.563-2.005 4.116-2.005 7.661v.721c0 3.83.638 6.565 1.915 8.202 1.292 1.637 3.388 2.456 6.287 2.456zm18.994-22.96v15.862c0 2.464.518 4.259 1.556 5.386 1.036 1.111 2.643 1.667 4.822 1.667 2.913 0 5.053-.736 6.422-2.208 1.382-1.472 2.072-3.868 2.072-7.188v-13.52h2.207v24.493h-1.892l-.405-3.38h-.136c-1.592 2.554-4.422 3.831-8.493 3.831-5.574 0-8.36-2.982-8.36-8.945V89.675zm31.749 22.96c1.412 0 2.643-.12 3.697-.36v1.802c-1.082.36-2.33.541-3.74.541-2.165 0-3.764-.578-4.803-1.735-1.02-1.157-1.53-2.974-1.53-5.453V91.612h-3.628v-1.307l3.628-1.013 1.125-5.543h1.149v5.926h7.188v1.937h-7.188v15.503c0 1.877.33 3.267.992 4.168.661.902 1.697 1.352 3.11 1.352zm18.881 1.983c-3.558 0-6.337-1.097-8.337-3.29-1.982-2.193-2.974-5.265-2.974-9.215 0-3.906.962-7.03 2.885-9.374 1.922-2.358 4.514-3.538 7.773-3.538 2.884 0 5.16 1.007 6.83 3.02 1.666 2.013 2.499 4.747 2.499 8.202v1.802h-17.643c.03 3.365.812 5.934 2.343 7.706 1.548 1.773 3.756 2.66 6.624 2.66 1.398 0 2.623-.098 3.674-.294 1.067-.195 2.41-.616 4.033-1.262v2.028c-1.382.601-2.659 1.007-3.83 1.217-1.172.225-2.464.338-3.877.338zm-.653-23.434c-2.356 0-4.251.781-5.676 2.344-1.428 1.547-2.262 3.785-2.503 6.714h15.142c0-2.839-.616-5.054-1.846-6.647-1.233-1.607-2.938-2.41-5.117-2.41zm25.734-1.983c1.036 0 2.146.105 3.333.316l-.428 2.14a13.036 13.036 0 00-3.177-.383c-2.086 0-3.799.887-5.137 2.66-1.336 1.772-2.005 4.01-2.005 6.714v13.52h-2.23V89.674h1.891l.226 4.416h.159c1.005-1.803 2.08-3.065 3.22-3.786 1.143-.736 2.525-1.104 4.148-1.104zm39.071 16.472c0 2.749-1.015 4.927-3.043 6.534-2.013 1.607-4.694 2.411-8.042 2.411-4.028 0-7.115-.443-9.263-1.33v-2.298c2.374 1.007 5.402 1.51 9.08 1.51 2.705 0 4.846-.616 6.423-1.848 1.592-1.246 2.389-2.876 2.389-4.89 0-1.246-.264-2.275-.79-3.086-.525-.826-1.382-1.578-2.568-2.253-1.187-.676-2.928-1.405-5.228-2.186-3.363-1.157-5.694-2.404-6.983-3.74-1.277-1.352-1.918-3.148-1.918-5.386 0-2.463.961-4.469 2.884-6.016 1.938-1.562 4.425-2.343 7.46-2.343 3.095 0 6 .585 8.72 1.757l-.834 1.983c-2.735-1.142-5.347-1.713-7.842-1.713-2.433 0-4.371.564-5.812 1.69-1.443 1.127-2.164 2.66-2.164 4.597 0 1.217.218 2.216.654 2.997.451.781 1.18 1.487 2.184 2.118 1.008.616 2.736 1.36 5.184 2.23 2.569.887 4.5 1.75 5.792 2.592 1.292.826 2.23 1.773 2.815 2.84.602 1.05.902 2.327.902 3.83zm16.177 8.945c-3.5 0-6.24-1.104-8.224-3.312-1.982-2.208-2.974-5.288-2.974-9.239 0-4.056 1.03-7.21 3.086-9.463 2.06-2.269 4.877-3.403 8.45-3.403 2.118 0 4.146.368 6.084 1.104l-.608 1.983c-2.117-.706-3.958-1.059-5.52-1.059-3.004 0-5.28.932-6.826 2.794-1.549 1.848-2.323 4.514-2.323 8 0 3.304.774 5.895 2.323 7.773 1.546 1.863 3.71 2.794 6.488 2.794 2.223 0 4.29-.398 6.197-1.194v2.073c-1.564.766-3.612 1.15-6.153 1.15zm14.4-.45h-2.233V89.674h2.233zm-2.548-31.298c0-1.442.474-2.164 1.42-2.164.467 0 .826.188 1.082.564.27.376.405.909.405 1.6 0 .676-.136 1.209-.405 1.6a1.22 1.22 0 01-1.082.585c-.946 0-1.42-.728-1.42-2.185zm20.663 31.748c-3.56 0-6.34-1.097-8.337-3.29-1.981-2.193-2.974-5.265-2.974-9.215 0-3.906.962-7.03 2.885-9.374 1.922-2.358 4.514-3.538 7.773-3.538 2.884 0 5.16 1.007 6.827 3.02 1.669 2.013 2.502 4.747 2.502 8.202v1.802h-17.643c.03 3.365.81 5.934 2.343 7.706 1.546 1.773 3.756 2.66 6.624 2.66 1.398 0 2.62-.098 3.674-.294 1.067-.195 2.41-.616 4.033-1.262v2.028c-1.382.601-2.659 1.007-3.83 1.217-1.172.225-2.464.338-3.877.338zm-.653-23.434c-2.359 0-4.25.781-5.679 2.344-1.425 1.547-2.261 3.785-2.5 6.714h15.142c0-2.839-.616-5.054-1.849-6.647-1.23-1.607-2.935-2.41-5.114-2.41zm33.169 22.983V98.282c0-2.464-.52-4.251-1.556-5.363-1.036-1.126-2.643-1.69-4.823-1.69-2.927 0-5.076.744-6.442 2.231-1.354 1.472-2.028 3.868-2.028 7.188v13.52h-2.233V89.674h1.895l.428 3.357h.133c1.595-2.554 4.425-3.83 8.496-3.83 5.558 0 8.337 2.981 8.337 8.945v16.02zm19.917.451c-3.5 0-6.24-1.104-8.224-3.312-1.982-2.208-2.974-5.288-2.974-9.239 0-4.056 1.028-7.21 3.087-9.463 2.058-2.269 4.873-3.403 8.45-3.403 2.117 0 4.145.368 6.083 1.104l-.607 1.983c-2.118-.706-3.959-1.059-5.522-1.059-3.005 0-5.28.932-6.828 2.794-1.545 1.848-2.32 4.514-2.32 8 0 3.304.775 5.895 2.32 7.773 1.549 1.863 3.713 2.794 6.492 2.794 2.222 0 4.286-.398 6.196-1.194v2.073c-1.564.766-3.615 1.15-6.153 1.15zm22.061 0c-3.561 0-6.34-1.097-8.337-3.29-1.984-2.193-2.977-5.265-2.977-9.215 0-3.906.962-7.03 2.885-9.374 1.922-2.358 4.514-3.538 7.775-3.538 2.884 0 5.158 1.007 6.827 3.02 1.667 2.013 2.5 4.747 2.5 8.202v1.802h-17.64c.027 3.365.81 5.934 2.342 7.706 1.546 1.773 3.754 2.66 6.625 2.66 1.397 0 2.62-.098 3.671-.294 1.067-.195 2.413-.616 4.033-1.262v2.028c-1.382.601-2.659 1.007-3.83 1.217-1.172.225-2.464.338-3.874.338zm-.654-23.434c-2.358 0-4.25.781-5.678 2.344-1.428 1.547-2.262 3.785-2.503 6.714h15.144c0-2.839-.618-5.054-1.848-6.647-1.233-1.607-2.938-2.41-5.115-2.41zm44.501 11.356h-13.385l-4.597 11.627h-2.546l13.25-33.077h1.466l12.978 33.077h-2.592zm-12.55-2.073h11.783l-4.483-11.874c-.375-.931-.826-2.223-1.351-3.876a35.738 35.738 0 01-1.331 3.921zm33.619 14.151c-3.5 0-6.243-1.104-8.225-3.312-1.984-2.208-2.974-5.288-2.974-9.239 0-4.056 1.028-7.21 3.087-9.463 2.059-2.269 4.874-3.403 8.45-3.403 2.118 0 4.145.368 6.084 1.104l-.61 1.983c-2.118-.706-3.956-1.059-5.52-1.059-3.005 0-5.279.932-6.827 2.794-1.546 1.848-2.32 4.514-2.32 8 0 3.304.774 5.895 2.32 7.773 1.548 1.863 3.71 2.794 6.488 2.794 2.226 0 4.29-.398 6.197-1.194v2.073c-1.561.766-3.612 1.15-6.15 1.15zm27.039-.45l-.564-3.876h-.18c-1.233 1.577-2.502 2.696-3.81 3.357-1.291.646-2.822.97-4.596.97-2.402 0-4.274-.617-5.61-1.849-1.338-1.231-2.004-2.936-2.004-5.114 0-2.389.99-4.244 2.974-5.566 1.997-1.322 4.881-2.02 8.652-2.096l4.664-.135v-1.622c0-2.329-.472-4.086-1.42-5.273-.947-1.186-2.47-1.78-4.574-1.78-2.267 0-4.617.631-7.053 1.893l-.833-1.938c2.69-1.262 5.348-1.893 7.975-1.893 2.69 0 4.697.699 6.017 2.096 1.339 1.397 2.005 3.575 2.005 6.534v16.291zm-9.014-1.578c2.615 0 4.671-.744 6.173-2.23 1.518-1.503 2.277-3.583 2.277-6.242v-2.411l-4.281.18c-3.44.165-5.897.706-7.369 1.623-1.456.9-2.184 2.313-2.184 4.236 0 1.532.464 2.726 1.395 3.582.948.842 2.276 1.262 3.989 1.262zm27.58-23.389c1.772 0 3.305.323 4.597.97 1.292.645 2.448 1.75 3.469 3.311h.136a117.61 117.61 0 01-.136-5.565v-8.81h2.21v35.06h-1.467l-.561-3.74h-.182c-1.862 2.794-4.535 4.191-8.02 4.191-3.381 0-5.965-1.052-7.752-3.155-1.787-2.103-2.682-5.167-2.682-9.193 0-4.236.887-7.473 2.659-9.711 1.774-2.239 4.35-3.358 7.73-3.358zm0 2.028c-2.674 0-4.686.939-6.04 2.817-1.335 1.878-2.005 4.604-2.005 8.18 0 6.94 2.697 10.41 8.091 10.41 2.764 0 4.792-.804 6.084-2.412 1.29-1.607 1.936-4.258 1.936-7.954v-.383c0-3.785-.639-6.504-1.915-8.157-1.262-1.667-3.313-2.5-6.15-2.5zm28.414 23.39c-3.561 0-6.34-1.098-8.337-3.29-1.982-2.194-2.974-5.266-2.974-9.216 0-3.906.961-7.03 2.884-9.374 1.923-2.358 4.515-3.538 7.773-3.538 2.884 0 5.16 1.007 6.827 3.02 1.67 2.013 2.502 4.747 2.502 8.202v1.802H614.64c.03 3.365.81 5.934 2.343 7.706 1.546 1.773 3.756 2.66 6.625 2.66 1.397 0 2.62-.098 3.674-.294 1.066-.195 2.41-.616 4.032-1.262v2.028c-1.381.601-2.658 1.007-3.83 1.217-1.171.225-2.464.338-3.876.338zm-.654-23.435c-2.358 0-4.25.781-5.678 2.344-1.426 1.547-2.262 3.785-2.5 6.714h15.141c0-2.839-.615-5.054-1.848-6.647-1.23-1.607-2.936-2.41-5.115-2.41zm46.688 22.983V98.102c0-2.389-.467-4.131-1.397-5.228-.931-1.096-2.36-1.645-4.282-1.645-2.507 0-4.363.691-5.566 2.073-1.2 1.382-1.802 3.553-1.802 6.512v14.353h-2.277V97.426c0-4.131-1.892-6.197-5.676-6.197-2.568 0-4.44.751-5.612 2.253-1.171 1.488-1.756 3.876-1.756 7.166v13.52h-2.233V89.674h1.849l.474 3.357h.133a6.96 6.96 0 012.885-2.817c1.248-.676 2.622-1.014 4.125-1.014 3.86 0 6.34 1.45 7.434 4.35h.09c.797-1.398 1.864-2.472 3.2-3.223 1.353-.751 2.884-1.127 4.596-1.127 2.674 0 4.682.714 6.017 2.141 1.339 1.427 2.005 3.695 2.005 6.805v16.02zm6.037-24.492h2.3l5.181 13.744c1.58 4.221 2.577 7.068 2.997 8.54h.136c.63-1.938 1.661-4.83 3.087-8.675l5.184-13.61h2.297l-10.973 28.46c-.887 2.312-1.63 3.875-2.23 4.686-.603.811-1.308 1.42-2.118 1.825-.797.406-1.766.608-2.907.608-.857 0-1.81-.157-2.861-.473v-1.938c.869.24 1.81.36 2.815.36.766 0 1.443-.18 2.027-.54.587-.36 1.113-.924 1.58-1.69.479-.75 1.028-1.953 1.643-3.605.63-1.637 1.036-2.704 1.218-3.2z" fill="#5043e4"/><path fill-rule="evenodd" clip-rule="evenodd" d="M78.668 34.399c.569-.233.459 1.424-1.501.47.38-1.016.737-.157 1.5-.47z" fill="#5043e4"/><path fill-rule="evenodd" clip-rule="evenodd" d="M60.754 112.525c1.336 3.525 2.778 2.538 3.255 4.656.184.817-1.581 2.099-.64 3.36-.266.235-1.412.288-1.755.056.09.182 1.127.585 1.103.606-1.72 1.448-2.398 1.619-4.072 1.345-1.036-.17-2.558-.753-3.768-1.253.016.031.036.05.047.088-.918.115 2.363 1.83 1.337 1.48-.605-.208-3.153-1.189-3.568-1.724-1.148-1.48-1.899-2.611-2.016-4.345-.1-1.445.062-2.53.9-3.809.323-.491 1.412-1.796 2.547-1.412 3.354 1.133 4.037-1.953 5.985 2.038.333-.2.313-.887.646-1.086zm27.931-77.046c.714.217-.103 1.215-.463 1.692-.412.544-.708-.457-1.411-.442-.698.015-1.262-.32-1.095-.594.763-1.252 2.044-.938 2.97-.656zm4.466 85.9c-1.788-1.246-3.404-1.018-3.943-3.66.146 2.398-2.156 5.085-.291 7.184-.091-.183.281-.518.191-.698.656-.345 1.313-.913 1.929.073.824 1.319.481 2.042.41 2.325-.314 1.252-1.793 3.205-3.126 3.796-1.601.71-3.507 1.56-5.048 1.146-2.999-.802-4.348-.906-5.604-5.997-1.405-5.697.245-10.076-5.145-14.5-2.234-1.835-3.693-2.902-6.572-3.791-2.301-.712-4.252-.853-6.622-.483-.735.116-3.379.828-4.036 1.01 1.53-.424-1.122-.466-1.562-.39-3.196.56-5.995 3.263-9.891 3.322-3.007.042-6.941 2.54-10.367 4.558-.318-.645-1.628.096-1.196-1.738-2.6 1.047-4.717 3.513-7.543 3.397-1.37-.057-2.598.963-3.875.222-.29-.168-.395-.65-.575-1.01l.998-.596c1.066-.462 1.566.641.568-.807-.1-.146-.993.068-1.12.028-.13-.04-.65.34-.741.16-1.37 1.56-3.252.722-4.875.588-8.192-.676-8.718-6.888-5.368-4.64 1.059.709-.912-1.59-2.078-2.042-.714-.277-.866-1.521-.952-2.425-.243-2.568.261-5.102.045-7.723-.017-.206.514 1.137.856 1.369-.374-2.31 1.343-5.886 2.607-7.39 1.897-2.258 3.886-4.556 6.793-5.627 3.19-1.175 6.274-.545 9.447-1.309 1.347-.324.904.972 1.233 1.468.176.264-.337.866.134 1.305-.86.818-1.43 1.73-2.61 1.91.82.712-.596.69-.356 1.263.627 1.485 1.916 2.217 3.07 2.563 1.503.45 3.23.512 4.759.95.21.06.925.867.402 1.245-1.056.767-1.997 2.032-2.028 2.401.214.288.123.734-.095 1.108.878-.408 2.556-.314 3.46-1.331.747-.843 1.709-1.583 2.415-1.583 1.04.001 1.091 2.14 1.427 2.699.229.383-.283.663.039.618.289-.038.16-.577.429-.547.744.08 1.026-1.324.99-2.04-.06-1.2-2.009-2.388-1.123-3.489.905-1.125 3.028-.199 4.045 1.146.807.102.627-.466.857-.437.69.089.888 1.345.73.106-.276-2.155-2.538-2.481-4.075-2.368-1.295.095-2.929 1-4.318 1.219-.69.108-1.82-.013-2.66-.576-1.094-.735-1.191-1.972-1.133-3.108.026-.518 1.206-.567.737-1.56 1.918-.49 3.382-1.914 4.812-3.217 1.053-.959-.129-3.157.755-4.55.398-.627 1.238-.868 1.946-1.15 1.653-.657 3.68-.41 5.04-.337-.57.904 1.639-.881 1.751.473.5-.299 1.17-.346 1.497-.195 3.137 1.446 6.005 4.795 9.738 4.441.482-.046.29 1.567.713 1.641 2.933.521 6.669.475 8.033 4.127.008.023-.27.172-.437.271.337.556.73 1.091 1.32 1.287 4.337 1.438 8.841-1.71 13.164.66.165.09-.413.423-.466.622-.566 2.169 1.447 5.02 3.223 3.986.44-.255-1.14-.968-.916-1.396.823-1.57-.357-3.109.606-4.4 1.327-1.78 4.33-1.196 4.468.638.153 2.008.467 2.813 1.953 3.406 1.106.441-.907-1.26.384-1.463-.216-.474.434-1.119-.234-1.437.279-1.277-1.17-2.208.358-1.99 1.372.196 1.869-.018 3.33-.038.64-.008.449.14 1.258 1-.66-1.691-.975-2.623-2.384-2.824-1.587-.226-3.479-.34-5.206-.235-.626.04.342-1.157-.306-1.686 1.512-.033 1.463-2.042 2.393-2.13-.534-.47-1.244-.12-1.583.08-.633.376-.466.793-1.683 1.17-.512 1.51-.846 3.376-2.326 3.606-3.215.5-6.372-.687-9.23-2.271-1.859-1.03-3.515-4.564-2.416-6.464 1.172-2.03 1.84-5.273 4.158-5.853 3.537-.884 7.297 2.364 8.762 5.653.533-3.564 1.517-7.424 4.186-9.889.27-.248.847 1.136 1.474 1.512.94.563 2.729.093 3.806-.026-.685-.312.01-1.057-.992-1.09-2.122-.073-3.05-1.222-3.272-3.027-.018-.146-.003-.401.33-.6-.214-.287.109-.623.425-.897.855-.745 1.385-.681 2.216-1.382.571-.048 1.115-.258 1.115-.258.612-.856 1.395.524 1.787-.424.214.287.373.583.156.957.915-.547-.157-.957.343-1.256-1.837-1.892-3.723.85-5.386-.052-1.01-.548.293-1.236.496-1.93.102-.052.778-.436.669-.47-.13-.041-1.347.406-1.437.225-.633.649-2.027 2.49-2.123 1.548-.199-1.971 1.658-2.906-.41-1.962-.77.352-1.224 2.538-1.367 3.266-.408 2.07.393 4.207-1.381 5.988-.474.476-1.222.255-1.363.207-3.866-1.302-6.824-4.895-8.24-9.24a10.358 10.358 0 01-.49-2.835c-.122-3.614 1.15-6.767 2.692-10.024.15-.313 3.188-4.166 5.138-5.22.074 1.075 1.055 1.46 1.466 2.277.802-1.838 1.932-4.09 3.235-3.913 3.86.523 3.596-1.98 5.28-2.205.985-.131 1.643-2.522 3.464-2.558 2.025-1.299.14-1.282 1.974-2.64-2.155.453-4.18 2.366-4.814 2.584-1.268.437-1.323.002-.219-.22.462-.093 3.533-4.083 6.473-3.05-1.019-1.854-3.9-1.524-4.775-1.875-1.436-.575-2.902 4.107-4.422 3.177-3.342-2.046-4.397-.61-5.934-.205-1.576.416-4.853-2.883-1.357.636-1.906-.044-1.926 1.443-3.812.701-.09-.035-1.257-.242-2.261-1.92-.078-.13.229 4.154 1.846 4.228-1.932-.088-3.24.11-6.017-3.488-.301 2.633 4.23 5.416 4.26 6.224.104 2.835-4.955 2.76-6.141 5.85-.225.586 1.377.738.652 1.496-1.961 2.053-4.192 2.378-6.014 4.544-.036.042-.255.843-.472 1.216.664-.705 1.466.203 2.153-.234-.02 4.745-5.592 5.319-8.863 6.94-.788.392-1.559 1.17-2.307 1.837 1.082 1.187 2.224 2.358 2.584 4.037.084.395-.362 1.507-.589.993-.319-.717-.415-2.027-.97-2.664-1.862-2.135-4.441-3.109-5.394-6.05-.636-1.961-.556-3.71.04-5.372.94-2.63 3.116-4.386 5.455-6.134 1.994-1.491 2.343-4.454.4-5.944-2.844-2.179-6.32-2.907-9.573-4.507-5.377-2.645-10.235-5.544-14.117-10.281-5.572-6.798-8.38-19.434.343-25.645.364-.258-.799-.854-1.204-.924-2.375-.414-4.88.018-7.04 1.419-2.347 1.523-3.902 2.941-6.33 3.61.366.474-.482-.92 2.405 4.102.189.329-.755.63-.813.54-1.765-2.727-2.923-5.558-3.538-8.736-2.437 1.809-3.919 6.198-3.88 9.688.067 5.752 8.451 14.368 10.682 16.86 2.766 3.086-9.037-5.351-11.702-14.974-4.613 4.044-1.482 13.97 2.95 21.835-1.264-.85-4.217-6.177-4.654-5.396-.723 1.291-.293 5.994-.07 7.403.177 1.134 1.425 2.303 2.302 3.297 1.143 1.296 6.337 4.157 7.206 5.741-.169.1-5.322-2.955-5.36-2.814-.038.141-.139 1.532-.22 1.825-.08.294.321 2.256.65 3.234 1.057 3.144 7.605 5.854 14.1 9.567.334.191-.549 1.495-8.708-3.56 0 0 .632 4.49.781 6.253.08.947 1.27 2.572 1.876 3.141 1.33 1.25 1.561 1.275 2.666 1.97 1.207.762 2.666-.073 3.326.057.23.047 5.23.004 5.385.17.145.157-5.968.804-5.837.977a15.01 15.01 0 005.728 4.52c1.713.765 5.345-.447 6.864-.654-1.956.606-5.126 1.037-6.494.782-1.259-.233-2.48-.56-3.403-1.007-1.104-.535-4.135-.184-6.25-.056.271.54.82 1.252.669 1.524-.937 1.67-2.757.178-4.177.266-2 .125-3.244 1.74-5.021 1.904.815.528 1.944.312 2.58 1.262-4.698 1.988-10.025 3.624-13.002 8.246-.098.153.424.848.366.899-2.502 2.233-6.216 4.074-6.035 7.69.067 1.322 1.332-.789 1.674-.486.272.243-.246 1.102-.325 1.187-2.276 2.498-2.328 5.923-2.971 8.828-.326 1.475.027 4.697.855 6.572.035.078-.904-1.067-1.246-1.299 1.437 4.518 3.308 9.56 7.727 11.739 6.48 3.194 11.389 2.187 18.415 2.43.666.023.526-1.218 1.071-.924 2.019 1.088 3.668-1.57 5.503-.2-.091-.18-.47-.827-.56-1.008 3.207-.578 8.162-3.885 10.575-2.524-.09-.181-1.239-1.069-1.329-1.25 1.243-.274 2.548.013 3.878.079-.09-.183-.18-.36-.271-.54 1.044-.328 2.812-1.325 2.624.403-.517 4.785 1.533 7.169 4.368 9.438 4.123 3.3 11.685 2.562 14.242-2.788.265-.555.645-1.27.755-1.988.318-2.097.11-2.733-.218-3.705-1.107-3.276-3.29-5.128-6.352-6.003 7.387-1.436 13.201 3.557 13.97 9.98.08.668 1.064 5.667 1.32 7.155.617 3.604 2.523 5.294 4.534 6.345 4.478 2.34 10.402-.608 12.388-4.997.701-1.549.544-3.983-.999-5.606.692-.388 1.441-.102 2.154-.235-.09-.182.719.68.757.54.04-.14-1.568-1.4-1.4-1.499z" fill="#5043e4"/><g clip-path="url(#clip0)" transform="matrix(2.82564 0 0 2.82564 -27.289 -6.651)" stroke-width=".354" fill="#5043e4"><path d="M94.43 15.72v5.33h.89v.35h-3.56v-.35h.89v-4.96h-.69v-.37zM59.34 12.27H59a.38.38 0 01-.43.4c-.57 0-1.33-.67-2.27-.67-2.68 0-4.3 2.64-4.3 5s1.54 4.61 4.13 4.61c1.56 0 2.15-.74 2.57-.74.27 0 .32.24.32.53h.36v-3.2H59l-.08.45a2.93 2.93 0 01-2.66 2.62c-1.49 0-2.07-1.27-2.07-4.46 0-3.33.81-4.45 2.11-4.45 1.48 0 2.51 1.64 2.7 3h.32zM63.92 19.87c0 .68-.42 1.24-1 1.24-.88 0-.92-.74-.92-1.3s.08-1.14.92-1.23l1-.1zm2.35.42c0 .34-.22.72-.37.72s-.28-.24-.28-.64v-3c0-1.47-1.38-1.83-2.71-1.83s-2.23.63-2.23 1.35a.781.781 0 00.84.84.73.73 0 00.79-.73c0-.66-.68-.67-.68-.68 0-.29.75-.39 1.19-.39 1 0 1.1.36 1.1 1.13v1.08l-1.27.11c-1.17.09-2.44.4-2.44 1.73 0 1.13 1 1.58 2 1.58a2 2 0 001.73-.82 1.32 1.32 0 001.29.82 1.25 1.25 0 001.37-1.27zM186.03 15.7v5.33h.89v.35h-3.56v-.35h.89v-4.96h-.89v-.37zM108.82 18.45l2.18-6.11h2.9v.37h-.84v8.34h.84v.35h-3.55v-.35h.86V12.8l-3 8.6h-.35l-3.1-8.76V20c0 1 .27 1.1 1 1.1v.3h-2.25v-.35c.74 0 .87-.43.87-1v-7.34h-.87v-.37h3.23zM116 17.94v-.87c0-.86.37-1.13.81-1.13.62 0 .81.42.81 1.13v.87zm0 .35h3.5a2.82 2.82 0 00-2.65-2.71 2.935 2.935 0 00-2.667 1.912c-.136.363-.198.75-.183 1.138a2.826 2.826 0 001.749 2.72c.356.146.737.217 1.121.21a2.56 2.56 0 002.67-2.26h-.35c-.28 1.2-.91 1.88-1.92 1.88-1.19 0-1.27-.94-1.27-1.81zM169.45 17.92v-.87c0-.86.37-1.13.81-1.13.62 0 .81.42.81 1.13v.87zm0 .35H173a2.82 2.82 0 00-2.65-2.71 2.938 2.938 0 00-2.83 3.05 2.826 2.826 0 001.749 2.72c.356.146.737.217 1.121.21a2.559 2.559 0 002.61-2.26h-.35c-.28 1.2-.91 1.88-1.92 1.88-1.19 0-1.32-.94-1.32-1.81z"/><path d="M119.52 12.36v.32h.89v8.36h-.89v.36h3.56v-.36h-.89v-8.68zM123.33 12.36v.32h.89v8.36h-.89v.36h3.55v-.36h-.89v-8.68zM131 19.84c0 1-.4 1.37-1.06 1.37s-1-.4-1-1.37v-2.53c0-1 .39-1.37 1-1.37s1.06.4 1.06 1.37zm2-1.27a3.07 3.07 0 00-6.13 0 3.071 3.071 0 006.13 0M142.22 12.65h.9v5.72c0 2 1.38 3.21 3.48 3.21 2.4 0 3.4-1.25 3.4-3.14v-4.89c0-.75.2-.9.67-.9h.26v-.34h-2.27v.34h.16c.66 0 .75.2.75 1v5a2.258 2.258 0 01-.523 1.766 2.246 2.246 0 01-1.667.784c-1.88-.08-2.25-1.35-2.38-3v-5.55h.84v-.34h-3.62zM164.53 21.53h.35l1.9-4.53c.39-.84.6-.95.89-1h.12v-.29h-2v.35h.21c.38 0 .55 0 .55.31a2.202 2.202 0 01-.22.79l-.88 2.06-1.4-3.16h.72v-.35h-3.23v.35h.6zM178.88 21.53h.3a.42.42 0 01.46-.31c.474.145.959.248 1.45.31a2.101 2.101 0 002.06-2.11c0-1.58-1.08-1.69-2.46-1.89-.72-.1-1.12-.2-1.12-.77 0-.57.52-.86 1.22-.86 1 0 1.34.64 1.66 1.48h.31v-1.83h-.3c0 .16-.13.29-.37.29-.42 0-.75-.29-1.34-.29a1.921 1.921 0 00-1.92 1.92c0 1.66 1.26 1.8 2.24 1.92.98.12 1.26.17 1.26.77s-.57 1-1.26 1a2.12 2.12 0 01-1.89-1.79h-.3zM161.08 15.7v5.33h.89v.35h-3.55v-.35h.89v-4.96h-.89v-.37zM159.31 13.92a.893.893 0 00.57.8.89.89 0 10-.57-.83M184.25 13.92a.884.884 0 00.552.823.888.888 0 001.212-.656.89.89 0 00-1.223-.99.877.877 0 00-.541.823M81.76 17.93v-.86c0-.86.38-1.13.81-1.13.62 0 .81.42.81 1.13v.86zm0 .35h3.56a2.82 2.82 0 00-2.66-2.7 2.939 2.939 0 00-2.83 3.05 2.81 2.81 0 002.87 2.92 2.57 2.57 0 002.66-2.25H85c-.28 1.2-.91 1.88-1.91 1.88-1.2 0-1.33-.94-1.33-1.81zM97.31 17.93v-.86c0-.86.37-1.13.81-1.13.44 0 .81.26.81 1.13v.86zm0 .35h3.55a2.808 2.808 0 00-2.65-2.7 2.939 2.939 0 00-2.83 3.05 2.81 2.81 0 002.87 2.92 2.558 2.558 0 002.65-2.25h-.35c-.28 1.2-.91 1.88-1.91 1.88-1.2 0-1.33-.94-1.33-1.81zM157.28 21v-3.44c0-1.39-.59-2-1.82-2a2.322 2.322 0 00-2.08 1.24v-1h-2.67v.34h.89V21h-.89v.35h3.43V21h-.76v-3.36c.11-.48.71-1.59 1.42-1.59.46 0 .7.17.7 1V21h-.73v.35h3.4V21zM135.64 15.74v1a2.33 2.33 0 012.08-1.24c1.23 0 1.82.65 1.82 2v3.55h.89v.35H137v-.35h.73v-4c0-.86-.23-1-.7-1-.71 0-1.31 1.1-1.42 1.58v3.42h.76v.35H133v-.35h.89v-5H133v-.31zM78.93 21.05v-3.47c0-1.4-.59-2.05-1.82-2.05A2.33 2.33 0 0075 16.78v-1.05h-2.64v.35h.89v5h-.89v.32h3.43v-.35H75v-3.4c.11-.47.71-1.58 1.42-1.58.46 0 .7.16.7 1v4h-.73v.33h3.4v-.35zM92.66 14a.89.89 0 10.88-.89.87.87 0 00-.88.89M194.67 15.7v.37c.55 0 .79 0 .79.3a2.002 2.002 0 01-.22.79l-.87 2.06-1.37-3.15h.73v-.37h-4.44v-2.76H189c0 1.36-.93 2.77-2.23 2.77v.36h.69v4a1.402 1.402 0 00.856 1.357c.175.075.364.113.554.113a1.811 1.811 0 001.71-1l-.27-.16c-.16.24-.36.54-.68.54-.32 0-.4-.18-.4-.6v-4.25h1.8l2.35 5.43-.81 1.92a.1.1 0 01-.09.07.098.098 0 01-.064-.022.098.098 0 01-.036-.058.878.878 0 00-.971-.644.88.88 0 00-.759.884.896.896 0 00.48.79h.05c.1.048.209.072.32.07.75.07 1.13-.49 1.39-1 .06-.13.12-.25.17-.38l.54-1.28.23-.53 1.85-4.32c.38-.84.53-.95 1-.95v-.35zM71.06 15.52a1.86 1.86 0 00-1.7 1.21v-1H66.7v.36h.89v5h-.89v.35h3.85v-.37h-1.19v-2.78a2.83 2.83 0 01.76-2.14.11.11 0 01.12 0 .09.09 0 01.05.11 1.23 1.23 0 00-.06.36.83.83 0 00.87.84.93.93 0 001-.94.94.94 0 00-1.04-1zM90.45 15.94h.07a.06.06 0 010 .07.551.551 0 00.099.697.53.53 0 00.241.123.55.55 0 00.602-.831.59.59 0 00-.222-.209 1 1 0 00-.56-.15 1.52 1.52 0 00-.95.41l-.18-.12a2.87 2.87 0 00-1.43-.34 2.09 2.09 0 00-2.24 1.88A1.659 1.659 0 0087 19a1.4 1.4 0 00-1.29 1.48 1.24 1.24 0 00.84 1.29 1.49 1.49 0 00-1.11 1.28c0 .95 1.12 1.68 2.55 1.68a2.76 2.76 0 003-2.78c0-1.25-.62-1.81-1.88-1.79h-2.22c-.32 0-.53 0-.53-.36s.49-.67 1-.67c.09.016.177.043.26.08.171.055.35.082.53.08a2.06 2.06 0 002.29-1.86 1.91 1.91 0 00-.44-1.14v-.06c.092-.083.189-.16.29-.23l.15-.07zm-1.72 5.92c1.29 0 1.63.06 1.63.84 0 .94-1.15 1.81-2.45 1.81a1.55 1.55 0 01-1.74-1.33 1.87 1.87 0 01.63-1.32zm.27-4.39C89 19 88.61 19 88.14 19s-.78-.1-.78-1.58c0-1 .11-1.49.78-1.49s.8 0 .81 1.52zM177.51 15.47a1.85 1.85 0 00-1.7 1.21v-1h-2.64v.36h.83V21h-.89v.36H177V21h-1.19v-2.76a2.826 2.826 0 01.76-2.14.109.109 0 01.116-.003c.018.01.032.026.042.044a.12.12 0 01.012.059 1.223 1.223 0 00-.06.36.827.827 0 00.87.84.931.931 0 001-.94.943.943 0 00-1.04-.99z"/></g><defs id="defs904"><clipPath id="clip0"><path fill="#fff" transform="translate(52 12)" id="rect901" d="M0 0h144.68v12.81H0z"/></clipPath></defs></svg>